<svg height="157" viewBox="0 0 1440 157" width="1440" xmlns="http://www.w3.org/2000/svg" xmlns:xlink="http://www.w3.org/1999/xlink"><clipPath id="a"><path d="m0-85h1440v157h-1440z"/></clipPath><path d="m26.722 15.611a11.111 11.111 0 1 1 -11.111-11.111 11.111 11.111 0 0 1 11.111 11.111z" fill="none" stroke="#0b2f50" stroke-linecap="round" stroke-linejoin="round" stroke-width="2" transform="translate(1271.5 80.5)"/><path d="m31.017 31.017-6.042-6.042" fill="none" stroke="#0b2f50" stroke-linecap="round" stroke-linejoin="round" stroke-width="2" transform="translate(1269.983 78.983)"/><g clip-path="url(#a)" transform="translate(0 85)"><path d="m0 0h1440v192h-1440z" fill="#fff" transform="translate(0 72)"/><path d="m0 0h673" fill="none" opacity=".346" stroke="#0b2f50" transform="translate(384 200)"/><text fill="#5e6a76" font-family="ProximaNova-Regular, Proxima Nova" font-size="30" opacity=".3" transform="translate(384 161)"><tspan x="0" y="0">Type words and hit enter</tspan></text><g fill="none" stroke="#0b2f50" stroke-linecap="round" stroke-linejoin="round" stroke-width="2"><path d="m32.056 18.278a13.778 13.778 0 1 1 -13.778-13.778 13.778 13.778 0 0 1 13.778 13.778z" transform="translate(1012.5 131.5)"/><path d="m32.467 32.467-7.492-7.492" transform="translate(1015.533 134.533)"/></g></g></svg>